<svg width="80" height="80" viewBox="0 0 80 80" fill="none" xmlns="http://www.w3.org/2000/svg">
  <path fill-rule="evenodd" clip-rule="evenodd" d="M42 18.5C42 24.8513 36.8513 30 30.5 30C24.1487 30 19 24.8513 19 18.5C19 12.1487 24.1487 7 30.5 7C36.8513 7 42 12.1487 42 18.5ZM27 15.5C27 16.3284 26.3284 17 25.5 17C24.6716 17 24 16.3284 24 15.5C24 14.6716 24.6716 14 25.5 14C26.3284 14 27 14.6716 27 15.5ZM35.5 17C36.3284 17 37 16.3284 37 15.5C37 14.6716 36.3284 14 35.5 14C34.6716 14 34 14.6716 34 15.5C34 16.3284 34.6716 17 35.5 17Z" fill="#FFFFFF"/>
  <path fill-rule="evenodd" clip-rule="evenodd" d="M75 37C75 46.9411 66.9411 55 57 55C47.0589 55 39 46.9411 39 37C39 27.0589 47.0589 19 57 19C66.9411 19 75 27.0589 75 37ZM52 31.5C52 32.8807 50.8807 34 49.5 34C48.1193 34 47 32.8807 47 31.5C47 30.1193 48.1193 29 49.5 29C50.8807 29 52 30.1193 52 31.5ZM63.5 34C64.8807 34 66 32.8807 66 31.5C66 30.1193 64.8807 29 63.5 29C62.1193 29 61 30.1193 61 31.5C61 32.8807 62.1193 34 63.5 34Z" fill="#FFFFFF"/>
  <path fill-rule="evenodd" clip-rule="evenodd" d="M53 63.5C53 68.7467 48.7467 73 43.5 73C38.2533 73 34 68.7467 34 63.5C34 58.2533 38.2533 54 43.5 54C48.7467 54 53 58.2533 53 63.5ZM41 61.5C41 62.3284 40.3284 63 39.5 63C38.6716 63 38 62.3284 38 61.5C38 60.6716 38.6716 60 39.5 60C40.3284 60 41 60.6716 41 61.5ZM47.5 63C48.3284 63 49 62.3284 49 61.5C49 60.6716 48.3284 60 47.5 60C46.6716 60 46 60.6716 46 61.5C46 62.3284 46.6716 63 47.5 63Z" fill="#FFFFFF"/>
  <path fill-rule="evenodd" clip-rule="evenodd" d="M37 47C37 55.8366 29.8366 63 21 63C12.1634 63 5 55.8366 5 47C5 38.1634 12.1634 31 21 31C29.8366 31 37 38.1634 37 47ZM16 42C16 43.1046 15.1046 44 14 44C12.8954 44 12 43.1046 12 42C12 40.8954 12.8954 40 14 40C15.1046 40 16 40.8954 16 42ZM27 44C28.1046 44 29 43.1046 29 42C29 40.8954 28.1046 40 27 40C25.8954 40 25 40.8954 25 42C25 43.1046 25.8954 44 27 44Z" fill="#FFFFFF"/>
</svg>
